<svg width="640" height="478" viewBox="0 0 640 478" fill="none" xmlns="http://www.w3.org/2000/svg">
<rect x="296" y="285" width="250" height="161" rx="20" fill="#0BB412"/>
<rect x="200" y="385" width="82" height="46" rx="20" fill="#0BB412"/>
<rect x="167" y="285" width="379" height="82" rx="20" fill="#0BB412"/>
<rect y="325" width="152" height="82" rx="20" fill="#0BB412"/>
<rect x="52" y="325" width="100" height="153" rx="20" fill="#0BB412"/>
<rect x="465" y="155" width="142" height="291" rx="20" fill="#0BB412"/>
<rect x="471" width="169" height="128" rx="20" fill="#0BB412"/>
<path d="M546.012 349.212C548.481 349.212 550.591 348.329 552.342 346.562C554.093 344.794 554.969 342.67 554.969 340.188C554.969 337.707 554.089 335.586 552.331 333.827C550.572 332.067 548.458 331.187 545.988 331.187C543.519 331.187 541.409 332.071 539.658 333.838C537.907 335.606 537.031 337.73 537.031 340.212C537.031 342.693 537.911 344.814 539.669 346.573C541.428 348.333 543.542 349.212 546.012 349.212ZM546 402C532.248 390.241 521.977 379.319 515.186 369.233C508.395 359.148 505 349.813 505 341.23C505 328.355 509.121 318.098 517.364 310.459C525.607 302.82 535.152 299 546 299C556.848 299 566.393 302.82 574.636 310.459C582.879 318.098 587 328.355 587 341.23C587 349.813 583.605 359.148 576.814 369.233C570.023 379.319 559.752 390.241 546 402Z" fill="#A42836"/>
</svg>
